<svg width="1280" height="648" viewBox="0 0 1280 648" fill="none" xmlns="http://www.w3.org/2000/svg">
<path d="M99.0385 46.0624C100.79 45.2644 102.748 46.6613 102.564 48.577L100.572 69.2659C100.387 71.1815 98.1981 72.1791 96.6313 71.0616L79.7102 58.9919C78.1435 57.8743 78.3741 55.4798 80.1253 54.6817L99.0385 46.0624Z" stroke="black" stroke-opacity="0.1"/>
<path d="M423.038 134.062C424.79 133.264 426.748 134.661 426.564 136.577L424.572 157.266C424.387 159.182 422.198 160.179 420.631 159.062L403.71 146.992C402.143 145.874 402.374 143.48 404.125 142.682L423.038 134.062Z" stroke="black" stroke-opacity="0.1"/>
<path d="M95.0385 119.062C96.7897 118.264 98.7481 119.661 98.5637 121.577L96.5716 142.266C96.3871 144.182 94.1981 145.179 92.6313 144.062L75.7102 131.992C74.1435 130.874 74.3741 128.48 76.1253 127.682L95.0385 119.062Z" stroke="black" stroke-opacity="0.1"/>
<path d="M140.038 199.062C141.79 198.264 143.748 199.661 143.564 201.577L141.572 222.266C141.387 224.182 139.198 225.179 137.631 224.062L120.71 211.992C119.143 210.874 119.374 208.48 121.125 207.682L140.038 199.062Z" stroke="black" stroke-opacity="0.1"/>
<path d="M300.038 134.062C301.79 133.264 303.748 134.661 303.564 136.577L301.572 157.266C301.387 159.182 299.198 160.179 297.631 159.062L280.71 146.992C279.143 145.874 279.374 143.48 281.125 142.682L300.038 134.062Z" stroke="black" stroke-opacity="0.1"/>
<rect x="149.5" y="83.5" width="19" height="19" rx="2.5" stroke="black" stroke-opacity="0.1"/>
<rect x="259.5" y="226.5" width="19" height="19" rx="2.5" stroke="black" stroke-opacity="0.1"/>
<rect x="221.5" y="38.5" width="19" height="19" rx="2.5" stroke="black" stroke-opacity="0.1"/>
<rect x="201.5" y="175.5" width="19" height="19" rx="2.5" stroke="black" stroke-opacity="0.1"/>
<rect x="335.5" y="96.5" width="19" height="19" rx="2.5" stroke="black" stroke-opacity="0.1"/>
<rect x="382.5" y="52.5" width="19" height="19" rx="2.5" stroke="black" stroke-opacity="0.1"/>
<circle cx="228.5" cy="129.5" r="12" stroke="black" stroke-opacity="0.1"/>
<circle cx="281.5" cy="80.5" r="12" stroke="black" stroke-opacity="0.1"/>
<circle cx="347.5" cy="194.5" r="12" stroke="black" stroke-opacity="0.1"/>
<path d="M74.0385 251.062C75.7897 250.264 77.7481 251.661 77.5637 253.577L75.5716 274.266C75.3871 276.182 73.1981 277.179 71.6313 276.062L54.7102 263.992C53.1435 262.874 53.3741 260.48 55.1253 259.682L74.0385 251.062Z" stroke="black" stroke-opacity="0.1"/>
<path d="M398.038 339.062C399.79 338.264 401.748 339.661 401.564 341.577L399.572 362.266C399.387 364.182 397.198 365.179 395.631 364.062L378.71 351.992C377.143 350.874 377.374 348.48 379.125 347.682L398.038 339.062Z" stroke="black" stroke-opacity="0.1"/>
<path d="M70.0385 324.062C71.7897 323.264 73.7481 324.661 73.5637 326.577L71.5716 347.266C71.3871 349.182 69.1981 350.179 67.6313 349.062L50.7102 336.992C49.1435 335.874 49.3741 333.48 51.1253 332.682L70.0385 324.062Z" stroke="black" stroke-opacity="0.1"/>
<path d="M115.038 404.062C116.79 403.264 118.748 404.661 118.564 406.577L116.572 427.266C116.387 429.182 114.198 430.179 112.631 429.062L95.7102 416.992C94.1434 415.874 94.374 413.48 96.1252 412.682L115.038 404.062Z" stroke="black" stroke-opacity="0.1"/>
<path d="M275.038 339.062C276.79 338.264 278.748 339.661 278.564 341.577L276.572 362.266C276.387 364.182 274.198 365.179 272.631 364.062L255.71 351.992C254.143 350.874 254.374 348.48 256.125 347.682L275.038 339.062Z" stroke="black" stroke-opacity="0.1"/>
<rect x="124.5" y="288.5" width="19" height="19" rx="2.5" stroke="black" stroke-opacity="0.1"/>
<rect x="234.5" y="431.5" width="19" height="19" rx="2.5" stroke="black" stroke-opacity="0.1"/>
<rect x="196.5" y="243.5" width="19" height="19" rx="2.5" stroke="black" stroke-opacity="0.1"/>
<rect x="176.5" y="380.5" width="19" height="19" rx="2.5" stroke="black" stroke-opacity="0.1"/>
<rect x="310.5" y="301.5" width="19" height="19" rx="2.5" stroke="black" stroke-opacity="0.1"/>
<rect x="357.5" y="257.5" width="19" height="19" rx="2.5" stroke="black" stroke-opacity="0.1"/>
<circle cx="203.5" cy="334.5" r="12" stroke="black" stroke-opacity="0.1"/>
<circle cx="256.5" cy="285.5" r="12" stroke="black" stroke-opacity="0.1"/>
<circle cx="322.5" cy="399.5" r="12" stroke="black" stroke-opacity="0.1"/>
<path d="M481.038 80.0624C482.79 79.2644 484.748 80.6613 484.564 82.577L482.572 103.266C482.387 105.182 480.198 106.179 478.631 105.062L461.71 92.9919C460.143 91.8743 460.374 89.4798 462.125 88.6817L481.038 80.0624Z" stroke="black" stroke-opacity="0.1"/>
<path d="M805.038 168.062C806.79 167.264 808.748 168.661 808.564 170.577L806.572 191.266C806.387 193.182 804.198 194.179 802.631 193.062L785.71 180.992C784.143 179.874 784.374 177.48 786.125 176.682L805.038 168.062Z" stroke="black" stroke-opacity="0.1"/>
<path d="M477.038 153.062C478.79 152.264 480.748 153.661 480.564 155.577L478.572 176.266C478.387 178.182 476.198 179.179 474.631 178.062L457.71 165.992C456.143 164.874 456.374 162.48 458.125 161.682L477.038 153.062Z" stroke="black" stroke-opacity="0.1"/>
<path d="M522.038 233.062C523.79 232.264 525.748 233.661 525.564 235.577L523.572 256.266C523.387 258.182 521.198 259.179 519.631 258.062L502.71 245.992C501.143 244.874 501.374 242.48 503.125 241.682L522.038 233.062Z" stroke="black" stroke-opacity="0.1"/>
<path d="M682.038 168.062C683.79 167.264 685.748 168.661 685.564 170.577L683.572 191.266C683.387 193.182 681.198 194.179 679.631 193.062L662.71 180.992C661.143 179.874 661.374 177.48 663.125 176.682L682.038 168.062Z" stroke="black" stroke-opacity="0.1"/>
<rect x="531.5" y="117.5" width="19" height="19" rx="2.5" stroke="black" stroke-opacity="0.1"/>
<rect x="641.5" y="260.5" width="19" height="19" rx="2.5" stroke="black" stroke-opacity="0.1"/>
<rect x="603.5" y="72.5" width="19" height="19" rx="2.5" stroke="black" stroke-opacity="0.1"/>
<rect x="583.5" y="209.5" width="19" height="19" rx="2.5" stroke="black" stroke-opacity="0.1"/>
<rect x="717.5" y="130.5" width="19" height="19" rx="2.5" stroke="black" stroke-opacity="0.1"/>
<rect x="764.5" y="86.5" width="19" height="19" rx="2.5" stroke="black" stroke-opacity="0.1"/>
<circle cx="610.5" cy="163.5" r="12" stroke="black" stroke-opacity="0.1"/>
<circle cx="663.5" cy="114.5" r="12" stroke="black" stroke-opacity="0.1"/>
<circle cx="729.5" cy="228.5" r="12" stroke="black" stroke-opacity="0.1"/>
<path d="M869.038 36.0624C870.79 35.2644 872.748 36.6613 872.564 38.577L870.572 59.2659C870.387 61.1815 868.198 62.1791 866.631 61.0616L849.71 48.9919C848.143 47.8743 848.374 45.4798 850.125 44.6817L869.038 36.0624Z" stroke="black" stroke-opacity="0.1"/>
<path d="M1193.04 124.062C1194.79 123.264 1196.75 124.661 1196.56 126.577L1194.57 147.266C1194.39 149.182 1192.2 150.179 1190.63 149.062L1173.71 136.992C1172.14 135.874 1172.37 133.48 1174.13 132.682L1193.04 124.062Z" stroke="black" stroke-opacity="0.1"/>
<path d="M865.038 109.062C866.79 108.264 868.748 109.661 868.564 111.577L866.572 132.266C866.387 134.182 864.198 135.179 862.631 134.062L845.71 121.992C844.143 120.874 844.374 118.48 846.125 117.682L865.038 109.062Z" stroke="black" stroke-opacity="0.1"/>
<path d="M910.038 189.062C911.79 188.264 913.748 189.661 913.564 191.577L911.572 212.266C911.387 214.182 909.198 215.179 907.631 214.062L890.71 201.992C889.143 200.874 889.374 198.48 891.125 197.682L910.038 189.062Z" stroke="black" stroke-opacity="0.1"/>
<path d="M1070.04 124.062C1071.79 123.264 1073.75 124.661 1073.56 126.577L1071.57 147.266C1071.39 149.182 1069.2 150.179 1067.63 149.062L1050.71 136.992C1049.14 135.874 1049.37 133.48 1051.13 132.682L1070.04 124.062Z" stroke="black" stroke-opacity="0.1"/>
<rect x="919.5" y="73.5" width="19" height="19" rx="2.5" stroke="black" stroke-opacity="0.1"/>
<rect x="1029.5" y="216.5" width="19" height="19" rx="2.5" stroke="black" stroke-opacity="0.1"/>
<rect x="991.5" y="28.5" width="19" height="19" rx="2.5" stroke="black" stroke-opacity="0.1"/>
<rect x="971.5" y="165.5" width="19" height="19" rx="2.5" stroke="black" stroke-opacity="0.1"/>
<rect x="1105.5" y="86.5" width="19" height="19" rx="2.5" stroke="black" stroke-opacity="0.1"/>
<rect x="1152.5" y="42.5" width="19" height="19" rx="2.5" stroke="black" stroke-opacity="0.1"/>
<circle cx="998.5" cy="119.5" r="12" stroke="black" stroke-opacity="0.1"/>
<circle cx="1051.5" cy="70.5" r="12" stroke="black" stroke-opacity="0.1"/>
<circle cx="1117.5" cy="184.5" r="12" stroke="black" stroke-opacity="0.1"/>
<path d="M1250.94 67.0384C1251.74 68.7896 1250.34 70.7481 1248.42 70.5636L1227.73 68.5715C1225.82 68.3871 1224.82 66.198 1225.94 64.6313L1238.01 47.7102C1239.13 46.1434 1241.52 46.374 1242.32 48.1252L1250.94 67.0384Z" stroke="black" stroke-opacity="0.1"/>
<rect x="1223.5" y="186.5" width="19" height="19" rx="2.5" transform="rotate(90 1223.5 186.5)" stroke="black" stroke-opacity="0.1"/>
<rect x="1274.5" y="128.5" width="19" height="19" rx="2.5" transform="rotate(90 1274.5 128.5)" stroke="black" stroke-opacity="0.1"/>
<circle cx="1255.5" cy="274.5" r="12" transform="rotate(90 1255.5 274.5)" stroke="black" stroke-opacity="0.1"/>
<path d="M1171.53 413.736C1171.58 415.659 1169.53 416.916 1167.84 415.998L1149.57 406.081C1147.88 405.162 1147.82 402.757 1149.46 401.752L1167.18 390.892C1168.82 389.886 1170.94 391.034 1170.99 392.958L1171.53 413.736Z" stroke="black" stroke-opacity="0.1"/>
<path d="M1219.59 300.513C1219.64 302.437 1217.59 303.694 1215.9 302.776L1197.63 292.858C1195.94 291.94 1195.88 289.535 1197.52 288.53L1215.24 277.67C1216.88 276.664 1219 277.812 1219.05 279.736L1219.59 300.513Z" stroke="black" stroke-opacity="0.1"/>
<rect x="1150.34" y="227.079" width="19" height="19" rx="2.5" transform="rotate(113 1150.34 227.079)" stroke="black" stroke-opacity="0.1"/>
<circle cx="1145.41" cy="320.587" r="12" transform="rotate(113 1145.41 320.587)" stroke="black" stroke-opacity="0.1"/>
<path d="M1074.04 390.062C1075.79 389.264 1077.75 390.661 1077.56 392.577L1075.57 413.266C1075.39 415.182 1073.2 416.179 1071.63 415.062L1054.71 402.992C1053.14 401.874 1053.37 399.48 1055.13 398.682L1074.04 390.062Z" stroke="black" stroke-opacity="0.1"/>
<path d="M1070.04 463.062C1071.79 462.264 1073.75 463.661 1073.56 465.577L1071.57 486.266C1071.39 488.182 1069.2 489.179 1067.63 488.062L1050.71 475.992C1049.14 474.874 1049.37 472.48 1051.13 471.682L1070.04 463.062Z" stroke="black" stroke-opacity="0.1"/>
<path d="M1115.04 543.062C1116.79 542.264 1118.75 543.661 1118.56 545.577L1116.57 566.266C1116.39 568.182 1114.2 569.179 1112.63 568.062L1095.71 555.992C1094.14 554.874 1094.37 552.48 1096.13 551.682L1115.04 543.062Z" stroke="black" stroke-opacity="0.1"/>
<path d="M1275.04 478.062C1276.79 477.264 1278.75 478.661 1278.56 480.577L1276.57 501.266C1276.39 503.182 1274.2 504.179 1272.63 503.062L1255.71 490.992C1254.14 489.874 1254.37 487.48 1256.13 486.682L1275.04 478.062Z" stroke="black" stroke-opacity="0.1"/>
<rect x="1124.5" y="427.5" width="19" height="19" rx="2.5" stroke="black" stroke-opacity="0.1"/>
<rect x="1234.5" y="570.5" width="19" height="19" rx="2.5" stroke="black" stroke-opacity="0.1"/>
<rect x="1196.5" y="382.5" width="19" height="19" rx="2.5" stroke="black" stroke-opacity="0.1"/>
<rect x="1176.5" y="519.5" width="19" height="19" rx="2.5" stroke="black" stroke-opacity="0.1"/>
<circle cx="1203.5" cy="473.5" r="12" stroke="black" stroke-opacity="0.1"/>
<circle cx="1256.5" cy="424.5" r="12" stroke="black" stroke-opacity="0.1"/>
<path d="M17.0385 487.062C18.7897 486.264 20.7481 487.661 20.5637 489.577L18.5716 510.266C18.3871 512.182 16.1981 513.179 14.6313 512.062L-2.28975 499.992C-3.85652 498.874 -3.62595 496.48 -1.87473 495.682L17.0385 487.062Z" stroke="black" stroke-opacity="0.1"/>
<path d="M341.038 575.062C342.79 574.264 344.748 575.661 344.564 577.577L342.572 598.266C342.387 600.182 340.198 601.179 338.631 600.062L321.71 587.992C320.143 586.874 320.374 584.48 322.125 583.682L341.038 575.062Z" stroke="black" stroke-opacity="0.1"/>
<path d="M13.0385 560.062C14.7897 559.264 16.7481 560.661 16.5637 562.577L14.5716 583.266C14.3871 585.182 12.1981 586.179 10.6313 585.062L-6.28975 572.992C-7.85652 571.874 -7.62595 569.48 -5.87473 568.682L13.0385 560.062Z" stroke="black" stroke-opacity="0.1"/>
<path d="M218.038 575.062C219.79 574.264 221.748 575.661 221.564 577.577L219.572 598.266C219.387 600.182 217.198 601.179 215.631 600.062L198.71 587.992C197.143 586.874 197.374 584.48 199.125 583.682L218.038 575.062Z" stroke="black" stroke-opacity="0.1"/>
<rect x="67.5" y="524.5" width="19" height="19" rx="2.5" stroke="black" stroke-opacity="0.1"/>
<rect x="139.5" y="479.5" width="19" height="19" rx="2.5" stroke="black" stroke-opacity="0.1"/>
<rect x="253.5" y="537.5" width="19" height="19" rx="2.5" stroke="black" stroke-opacity="0.1"/>
<rect x="300.5" y="493.5" width="19" height="19" rx="2.5" stroke="black" stroke-opacity="0.1"/>
<circle cx="146.5" cy="570.5" r="12" stroke="black" stroke-opacity="0.1"/>
<circle cx="199.5" cy="521.5" r="12" stroke="black" stroke-opacity="0.1"/>
<path d="M547.349 197.353C548.99 198.358 548.927 200.763 547.236 201.681L528.97 211.599C527.278 212.517 525.227 211.26 525.278 209.336L525.822 188.559C525.872 186.635 527.986 185.487 529.627 186.493L547.349 197.353Z" stroke="black" stroke-opacity="0.1"/>
<path d="M655.572 515.17C657.213 516.175 657.15 518.58 655.459 519.498L637.193 529.416C635.502 530.334 633.45 529.077 633.501 527.153L634.045 506.376C634.095 504.452 636.209 503.304 637.85 504.31L655.572 515.17Z" stroke="black" stroke-opacity="0.1"/>
<path d="M484.592 234.858C486.233 235.863 486.17 238.268 484.479 239.186L466.213 249.104C464.522 250.022 462.471 248.765 462.521 246.841L463.065 226.064C463.116 224.14 465.23 222.992 466.871 223.998L484.592 234.858Z" stroke="black" stroke-opacity="0.1"/>
<path d="M443.433 316.9C445.074 317.905 445.011 320.31 443.32 321.228L425.054 331.146C423.363 332.064 421.312 330.807 421.362 328.883L421.906 308.106C421.956 306.182 424.07 305.034 425.711 306.04L443.433 316.9Z" stroke="black" stroke-opacity="0.1"/>
<path d="M586.791 413.198C588.432 414.204 588.369 416.608 586.678 417.527L568.412 427.444C566.721 428.363 564.67 427.106 564.72 425.182L565.264 404.404C565.315 402.48 567.429 401.333 569.07 402.338L586.791 413.198Z" stroke="black" stroke-opacity="0.1"/>
<rect x="544.53" y="260.122" width="19" height="19" rx="2.5" transform="rotate(56 544.53 260.122)" stroke="black" stroke-opacity="0.1"/>
<rect x="487.488" y="431.281" width="19" height="19" rx="2.5" transform="rotate(56 487.488 431.281)" stroke="black" stroke-opacity="0.1"/>
<rect x="622.098" y="294.649" width="19" height="19" rx="2.5" transform="rotate(56 622.098 294.649)" stroke="black" stroke-opacity="0.1"/>
<rect x="497.336" y="354.678" width="19" height="19" rx="2.5" transform="rotate(56 497.336 354.678)" stroke="black" stroke-opacity="0.1"/>
<rect x="637.762" y="421.593" width="19" height="19" rx="2.5" transform="rotate(56 637.762 421.593)" stroke="black" stroke-opacity="0.1"/>
<rect x="700.522" y="435.953" width="19" height="19" rx="2.5" transform="rotate(56 700.522 435.953)" stroke="black" stroke-opacity="0.1"/>
<circle cx="550.57" cy="351.339" r="12" transform="rotate(56 550.57 351.339)" stroke="black" stroke-opacity="0.1"/>
<circle cx="620.83" cy="367.877" r="12" transform="rotate(56 620.83 367.877)" stroke="black" stroke-opacity="0.1"/>
<circle cx="563.227" cy="486.342" r="12" transform="rotate(56 563.227 486.342)" stroke="black" stroke-opacity="0.1"/>
<path d="M719.771 479.988C721.47 479.085 723.51 480.36 723.443 482.283L722.717 503.055C722.65 504.978 720.526 506.108 718.894 505.088L701.268 494.074C699.636 493.054 699.72 490.65 701.419 489.746L719.771 479.988Z" stroke="black" stroke-opacity="0.1"/>
<path d="M1048.54 548.044C1050.24 547.141 1052.28 548.416 1052.21 550.339L1051.49 571.111C1051.42 573.034 1049.29 574.164 1047.66 573.144L1030.04 562.13C1028.4 561.11 1028.49 558.706 1030.19 557.802L1048.54 548.044Z" stroke="black" stroke-opacity="0.1"/>
<path d="M720.235 553.096C721.934 552.193 723.974 553.468 723.907 555.391L723.181 576.163C723.114 578.086 720.99 579.216 719.358 578.196L701.732 567.182C700.1 566.162 700.184 563.758 701.883 562.854L720.235 553.096Z" stroke="black" stroke-opacity="0.1"/>
<path d="M925.768 555.553C927.467 554.65 929.507 555.925 929.44 557.848L928.715 578.62C928.647 580.543 926.523 581.673 924.891 580.653L907.265 569.639C905.633 568.619 905.717 566.215 907.416 565.311L925.768 555.553Z" stroke="black" stroke-opacity="0.1"/>
<rect x="772.424" y="514.276" width="19" height="19" rx="2.5" transform="rotate(-3.5 772.424 514.276)" stroke="black" stroke-opacity="0.1"/>
<rect x="841.542" y="464.964" width="19" height="19" rx="2.5" transform="rotate(-3.5 841.542 464.964)" stroke="black" stroke-opacity="0.1"/>
<rect x="958.87" y="515.896" width="19" height="19" rx="2.5" transform="rotate(-3.5 958.87 515.896)" stroke="black" stroke-opacity="0.1"/>
<rect x="1003.1" y="469.109" width="19" height="19" rx="2.5" transform="rotate(-3.5 1003.1 469.109)" stroke="black" stroke-opacity="0.1"/>
<circle cx="854.084" cy="555.367" r="12" transform="rotate(-3.5 854.084 555.367)" stroke="black" stroke-opacity="0.1"/>
<circle cx="903.994" cy="503.223" r="12" transform="rotate(-3.5 903.994 503.223)" stroke="black" stroke-opacity="0.1"/>
<path d="M623.088 591.981C623.088 593.905 621.005 595.108 619.338 594.146L601.338 583.753C599.672 582.791 599.672 580.386 601.338 579.423L619.338 569.031C621.005 568.069 623.088 569.272 623.088 571.196L623.088 591.981Z" stroke="black" stroke-opacity="0.1"/>
<path d="M537.088 534.981C537.088 536.905 535.005 538.108 533.338 537.146L515.338 526.753C513.672 525.791 513.672 523.386 515.338 522.423L533.338 512.031C535.005 511.069 537.088 512.272 537.088 514.196L537.088 534.981Z" stroke="black" stroke-opacity="0.1"/>
<path d="M414.088 442.981C414.088 444.905 412.005 446.108 410.338 445.146L392.338 434.753C390.672 433.791 390.672 431.386 392.338 430.423L410.338 420.031C412.005 419.069 414.088 420.272 414.088 422.196L414.088 442.981Z" stroke="black" stroke-opacity="0.1"/>
<rect x="477.908" y="486.131" width="19" height="19" rx="2.5" transform="rotate(114.5 477.908 486.131)" stroke="black" stroke-opacity="0.1"/>
<rect x="488.998" y="570.309" width="19" height="19" rx="2.5" transform="rotate(114.5 488.998 570.309)" stroke="black" stroke-opacity="0.1"/>
<rect x="372.627" y="495.297" width="19" height="19" rx="2.5" transform="rotate(114.5 372.627 495.297)" stroke="black" stroke-opacity="0.1"/>
<circle cx="403.289" cy="538.942" r="12" transform="rotate(114.5 403.289 538.942)" stroke="black" stroke-opacity="0.1"/>
<path d="M725.038 252.062C726.79 251.264 728.748 252.661 728.564 254.577L726.572 275.266C726.387 277.182 724.198 278.179 722.631 277.062L705.71 264.992C704.143 263.874 704.374 261.48 706.125 260.682L725.038 252.062Z" stroke="black" stroke-opacity="0.1"/>
<path d="M1049.04 340.062C1050.79 339.264 1052.75 340.661 1052.56 342.577L1050.57 363.266C1050.39 365.182 1048.2 366.179 1046.63 365.062L1029.71 352.992C1028.14 351.874 1028.37 349.48 1030.13 348.682L1049.04 340.062Z" stroke="black" stroke-opacity="0.1"/>
<path d="M721.038 325.062C722.79 324.264 724.748 325.661 724.564 327.577L722.572 348.266C722.387 350.182 720.198 351.179 718.631 350.062L701.71 337.992C700.143 336.874 700.374 334.48 702.125 333.682L721.038 325.062Z" stroke="black" stroke-opacity="0.1"/>
<path d="M766.038 405.062C767.79 404.264 769.748 405.661 769.564 407.577L767.572 428.266C767.387 430.182 765.198 431.179 763.631 430.062L746.71 417.992C745.143 416.874 745.374 414.48 747.125 413.682L766.038 405.062Z" stroke="black" stroke-opacity="0.1"/>
<path d="M926.038 340.062C927.79 339.264 929.748 340.661 929.564 342.577L927.572 363.266C927.387 365.182 925.198 366.179 923.631 365.062L906.71 352.992C905.143 351.874 905.374 349.48 907.125 348.682L926.038 340.062Z" stroke="black" stroke-opacity="0.1"/>
<rect x="775.5" y="289.5" width="19" height="19" rx="2.5" stroke="black" stroke-opacity="0.1"/>
<rect x="885.5" y="432.5" width="19" height="19" rx="2.5" stroke="black" stroke-opacity="0.1"/>
<rect x="847.5" y="244.5" width="19" height="19" rx="2.5" stroke="black" stroke-opacity="0.1"/>
<rect x="827.5" y="381.5" width="19" height="19" rx="2.5" stroke="black" stroke-opacity="0.1"/>
<rect x="961.5" y="302.5" width="19" height="19" rx="2.5" stroke="black" stroke-opacity="0.1"/>
<rect x="1008.5" y="258.5" width="19" height="19" rx="2.5" stroke="black" stroke-opacity="0.1"/>
<circle cx="854.5" cy="335.5" r="12" stroke="black" stroke-opacity="0.1"/>
<circle cx="907.5" cy="286.5" r="12" stroke="black" stroke-opacity="0.1"/>
<circle cx="973.5" cy="400.5" r="12" stroke="black" stroke-opacity="0.1"/>
</svg>
